<mxfile host="app.diagrams.net" modified="2021-08-30T04:22:14.254Z" agent="5.0 (Windows NT 10.0; Win64; x64) AppleWebKit/537.36 (KHTML, like Gecko) Chrome/92.0.4515.159 Safari/537.36" etag="C2XKzYPbWBkMURh9FKIv" version="15.0.3" type="github">
  <diagram id="DpzG7kSTQC5FThcuJs8x" name="Page-1">
    <mxGraphModel dx="1038" dy="547" grid="1" gridSize="10" guides="1" tooltips="1" connect="1" arrows="1" fold="1" page="1" pageScale="1" pageWidth="827" pageHeight="1169" math="0" shadow="0">
      <root>
        <mxCell id="0" />
        <mxCell id="1" parent="0" />
        <mxCell id="iKauKBYQVQ_TLAElzsGf-37" style="rounded=0;orthogonalLoop=1;jettySize=auto;html=1;exitX=0.75;exitY=1;exitDx=0;exitDy=0;entryX=0;entryY=0.75;entryDx=0;entryDy=0;startArrow=none;startFill=0;" edge="1" parent="1" source="iKauKBYQVQ_TLAElzsGf-1" target="iKauKBYQVQ_TLAElzsGf-8">
          <mxGeometry relative="1" as="geometry" />
        </mxCell>
        <mxCell id="iKauKBYQVQ_TLAElzsGf-60" style="edgeStyle=none;rounded=0;orthogonalLoop=1;jettySize=auto;html=1;exitX=0;exitY=0.25;exitDx=0;exitDy=0;entryX=0.75;entryY=0;entryDx=0;entryDy=0;startArrow=none;startFill=0;" edge="1" parent="1" source="iKauKBYQVQ_TLAElzsGf-1" target="iKauKBYQVQ_TLAElzsGf-13">
          <mxGeometry relative="1" as="geometry" />
        </mxCell>
        <mxCell id="iKauKBYQVQ_TLAElzsGf-1" value="Reactor1" style="rounded=0;whiteSpace=wrap;html=1;" vertex="1" parent="1">
          <mxGeometry x="330" y="120" width="120" height="60" as="geometry" />
        </mxCell>
        <mxCell id="iKauKBYQVQ_TLAElzsGf-53" style="edgeStyle=none;rounded=0;orthogonalLoop=1;jettySize=auto;html=1;exitX=0;exitY=0.25;exitDx=0;exitDy=0;entryX=1;entryY=0.75;entryDx=0;entryDy=0;startArrow=none;startFill=0;" edge="1" parent="1" source="iKauKBYQVQ_TLAElzsGf-7" target="iKauKBYQVQ_TLAElzsGf-1">
          <mxGeometry relative="1" as="geometry" />
        </mxCell>
        <mxCell id="iKauKBYQVQ_TLAElzsGf-61" style="edgeStyle=none;rounded=0;orthogonalLoop=1;jettySize=auto;html=1;exitX=0;exitY=0.5;exitDx=0;exitDy=0;entryX=1;entryY=0.5;entryDx=0;entryDy=0;startArrow=none;startFill=0;" edge="1" parent="1" source="iKauKBYQVQ_TLAElzsGf-7" target="iKauKBYQVQ_TLAElzsGf-13">
          <mxGeometry relative="1" as="geometry" />
        </mxCell>
        <mxCell id="iKauKBYQVQ_TLAElzsGf-7" value="Reactor2" style="rounded=0;whiteSpace=wrap;html=1;" vertex="1" parent="1">
          <mxGeometry x="550" y="210" width="120" height="60" as="geometry" />
        </mxCell>
        <mxCell id="iKauKBYQVQ_TLAElzsGf-38" style="edgeStyle=none;rounded=0;orthogonalLoop=1;jettySize=auto;html=1;exitX=0;exitY=1;exitDx=0;exitDy=0;entryX=0.5;entryY=0;entryDx=0;entryDy=0;startArrow=none;startFill=0;" edge="1" parent="1" source="iKauKBYQVQ_TLAElzsGf-8" target="iKauKBYQVQ_TLAElzsGf-10">
          <mxGeometry relative="1" as="geometry" />
        </mxCell>
        <mxCell id="iKauKBYQVQ_TLAElzsGf-54" style="edgeStyle=none;rounded=0;orthogonalLoop=1;jettySize=auto;html=1;exitX=0.25;exitY=0;exitDx=0;exitDy=0;entryX=0.573;entryY=1.03;entryDx=0;entryDy=0;entryPerimeter=0;startArrow=none;startFill=0;" edge="1" parent="1" source="iKauKBYQVQ_TLAElzsGf-8" target="iKauKBYQVQ_TLAElzsGf-7">
          <mxGeometry relative="1" as="geometry" />
        </mxCell>
        <mxCell id="iKauKBYQVQ_TLAElzsGf-8" value="Reactor3" style="rounded=0;whiteSpace=wrap;html=1;" vertex="1" parent="1">
          <mxGeometry x="610" y="350" width="120" height="60" as="geometry" />
        </mxCell>
        <mxCell id="iKauKBYQVQ_TLAElzsGf-55" style="edgeStyle=none;rounded=0;orthogonalLoop=1;jettySize=auto;html=1;exitX=0.5;exitY=0;exitDx=0;exitDy=0;entryX=0.25;entryY=1;entryDx=0;entryDy=0;startArrow=none;startFill=0;" edge="1" parent="1" source="iKauKBYQVQ_TLAElzsGf-9" target="iKauKBYQVQ_TLAElzsGf-8">
          <mxGeometry relative="1" as="geometry" />
        </mxCell>
        <mxCell id="iKauKBYQVQ_TLAElzsGf-64" style="edgeStyle=none;rounded=0;orthogonalLoop=1;jettySize=auto;html=1;exitX=0.25;exitY=0;exitDx=0;exitDy=0;entryX=0.25;entryY=1;entryDx=0;entryDy=0;startArrow=none;startFill=0;" edge="1" parent="1" source="iKauKBYQVQ_TLAElzsGf-9" target="iKauKBYQVQ_TLAElzsGf-7">
          <mxGeometry relative="1" as="geometry" />
        </mxCell>
        <mxCell id="iKauKBYQVQ_TLAElzsGf-9" value="Reactor4" style="rounded=0;whiteSpace=wrap;html=1;" vertex="1" parent="1">
          <mxGeometry x="520" y="480" width="120" height="60" as="geometry" />
        </mxCell>
        <mxCell id="iKauKBYQVQ_TLAElzsGf-45" style="edgeStyle=none;rounded=0;orthogonalLoop=1;jettySize=auto;html=1;exitX=0;exitY=0.25;exitDx=0;exitDy=0;entryX=1;entryY=0.75;entryDx=0;entryDy=0;startArrow=none;startFill=0;" edge="1" parent="1" source="iKauKBYQVQ_TLAElzsGf-10" target="iKauKBYQVQ_TLAElzsGf-12">
          <mxGeometry relative="1" as="geometry" />
        </mxCell>
        <mxCell id="iKauKBYQVQ_TLAElzsGf-56" style="edgeStyle=none;rounded=0;orthogonalLoop=1;jettySize=auto;html=1;exitX=1;exitY=0.5;exitDx=0;exitDy=0;startArrow=none;startFill=0;" edge="1" parent="1" source="iKauKBYQVQ_TLAElzsGf-10" target="iKauKBYQVQ_TLAElzsGf-9">
          <mxGeometry relative="1" as="geometry" />
        </mxCell>
        <mxCell id="iKauKBYQVQ_TLAElzsGf-10" value="Reactor5" style="rounded=0;whiteSpace=wrap;html=1;" vertex="1" parent="1">
          <mxGeometry x="330" y="540" width="120" height="60" as="geometry" />
        </mxCell>
        <mxCell id="iKauKBYQVQ_TLAElzsGf-57" style="edgeStyle=none;rounded=0;orthogonalLoop=1;jettySize=auto;html=1;exitX=1;exitY=1;exitDx=0;exitDy=0;entryX=0;entryY=0.75;entryDx=0;entryDy=0;startArrow=none;startFill=0;" edge="1" parent="1" source="iKauKBYQVQ_TLAElzsGf-11" target="iKauKBYQVQ_TLAElzsGf-10">
          <mxGeometry relative="1" as="geometry" />
        </mxCell>
        <mxCell id="iKauKBYQVQ_TLAElzsGf-63" style="edgeStyle=none;rounded=0;orthogonalLoop=1;jettySize=auto;html=1;exitX=1;exitY=0.25;exitDx=0;exitDy=0;entryX=0;entryY=0.5;entryDx=0;entryDy=0;startArrow=none;startFill=0;" edge="1" parent="1" source="iKauKBYQVQ_TLAElzsGf-11" target="iKauKBYQVQ_TLAElzsGf-9">
          <mxGeometry relative="1" as="geometry" />
        </mxCell>
        <mxCell id="iKauKBYQVQ_TLAElzsGf-11" value="Reactor6" style="rounded=0;whiteSpace=wrap;html=1;" vertex="1" parent="1">
          <mxGeometry x="140" y="480" width="120" height="60" as="geometry" />
        </mxCell>
        <mxCell id="iKauKBYQVQ_TLAElzsGf-46" style="edgeStyle=none;rounded=0;orthogonalLoop=1;jettySize=auto;html=1;exitX=1;exitY=0.5;exitDx=0;exitDy=0;entryX=0;entryY=0.75;entryDx=0;entryDy=0;startArrow=none;startFill=0;" edge="1" parent="1" source="iKauKBYQVQ_TLAElzsGf-12" target="iKauKBYQVQ_TLAElzsGf-1">
          <mxGeometry relative="1" as="geometry" />
        </mxCell>
        <mxCell id="iKauKBYQVQ_TLAElzsGf-58" style="edgeStyle=none;rounded=0;orthogonalLoop=1;jettySize=auto;html=1;exitX=0.5;exitY=1;exitDx=0;exitDy=0;entryX=0.19;entryY=-0.003;entryDx=0;entryDy=0;entryPerimeter=0;startArrow=none;startFill=0;" edge="1" parent="1" source="iKauKBYQVQ_TLAElzsGf-12" target="iKauKBYQVQ_TLAElzsGf-11">
          <mxGeometry relative="1" as="geometry" />
        </mxCell>
        <mxCell id="iKauKBYQVQ_TLAElzsGf-12" value="Reactor7" style="rounded=0;whiteSpace=wrap;html=1;" vertex="1" parent="1">
          <mxGeometry x="50" y="350" width="120" height="60" as="geometry" />
        </mxCell>
        <mxCell id="iKauKBYQVQ_TLAElzsGf-59" style="edgeStyle=none;rounded=0;orthogonalLoop=1;jettySize=auto;html=1;exitX=0.25;exitY=1;exitDx=0;exitDy=0;entryX=0.5;entryY=0;entryDx=0;entryDy=0;startArrow=none;startFill=0;" edge="1" parent="1" source="iKauKBYQVQ_TLAElzsGf-13" target="iKauKBYQVQ_TLAElzsGf-12">
          <mxGeometry relative="1" as="geometry" />
        </mxCell>
        <mxCell id="iKauKBYQVQ_TLAElzsGf-62" style="edgeStyle=none;rounded=0;orthogonalLoop=1;jettySize=auto;html=1;exitX=0.5;exitY=1;exitDx=0;exitDy=0;entryX=0.5;entryY=0;entryDx=0;entryDy=0;startArrow=none;startFill=0;" edge="1" parent="1" source="iKauKBYQVQ_TLAElzsGf-13" target="iKauKBYQVQ_TLAElzsGf-11">
          <mxGeometry relative="1" as="geometry" />
        </mxCell>
        <mxCell id="iKauKBYQVQ_TLAElzsGf-13" value="Reactor8" style="rounded=0;whiteSpace=wrap;html=1;" vertex="1" parent="1">
          <mxGeometry x="120" y="210" width="120" height="60" as="geometry" />
        </mxCell>
      </root>
    </mxGraphModel>
  </diagram>
</mxfile>
